<mxfile host="app.diagrams.net" agent="Mozilla/5.0 (Windows NT 10.0; Win64; x64) AppleWebKit/537.36 (KHTML, like Gecko) Chrome/138.0.0.0 YaBrowser/25.8.0.0 Safari/537.36" version="28.2.5">
  <diagram name="Страница — 1" id="anslVjtWo42_AeNKnI_F">
    <mxGraphModel dx="2796" dy="2295" grid="1" gridSize="10" guides="1" tooltips="1" connect="1" arrows="1" fold="1" page="1" pageScale="1" pageWidth="827" pageHeight="1169" math="0" shadow="0">
      <root>
        <mxCell id="0" />
        <mxCell id="1" parent="0" />
        <mxCell id="kUiguWs9lgzKMgI9lc4B-36" style="edgeStyle=orthogonalEdgeStyle;rounded=0;orthogonalLoop=1;jettySize=auto;html=1;entryX=0.914;entryY=0.741;entryDx=0;entryDy=0;entryPerimeter=0;" edge="1" parent="1" source="kUiguWs9lgzKMgI9lc4B-2" target="kUiguWs9lgzKMgI9lc4B-14">
          <mxGeometry relative="1" as="geometry" />
        </mxCell>
        <mxCell id="kUiguWs9lgzKMgI9lc4B-43" style="edgeStyle=orthogonalEdgeStyle;rounded=0;orthogonalLoop=1;jettySize=auto;html=1;entryX=0.319;entryY=0.009;entryDx=0;entryDy=0;entryPerimeter=0;" edge="1" parent="1" source="kUiguWs9lgzKMgI9lc4B-2" target="kUiguWs9lgzKMgI9lc4B-15">
          <mxGeometry relative="1" as="geometry">
            <Array as="points">
              <mxPoint x="258" y="-40" />
            </Array>
          </mxGeometry>
        </mxCell>
        <mxCell id="kUiguWs9lgzKMgI9lc4B-44" style="edgeStyle=orthogonalEdgeStyle;rounded=0;orthogonalLoop=1;jettySize=auto;html=1;" edge="1" parent="1" source="kUiguWs9lgzKMgI9lc4B-2" target="kUiguWs9lgzKMgI9lc4B-30">
          <mxGeometry relative="1" as="geometry" />
        </mxCell>
        <mxCell id="kUiguWs9lgzKMgI9lc4B-45" style="edgeStyle=orthogonalEdgeStyle;rounded=0;orthogonalLoop=1;jettySize=auto;html=1;entryX=0.5;entryY=0;entryDx=0;entryDy=0;" edge="1" parent="1" source="kUiguWs9lgzKMgI9lc4B-2" target="kUiguWs9lgzKMgI9lc4B-22">
          <mxGeometry relative="1" as="geometry" />
        </mxCell>
        <mxCell id="kUiguWs9lgzKMgI9lc4B-2" value="Преподаватель" style="shape=umlActor;verticalLabelPosition=bottom;verticalAlign=top;html=1;outlineConnect=0;" vertex="1" parent="1">
          <mxGeometry x="-10" y="-70" width="30" height="60" as="geometry" />
        </mxCell>
        <mxCell id="kUiguWs9lgzKMgI9lc4B-37" style="edgeStyle=orthogonalEdgeStyle;rounded=0;orthogonalLoop=1;jettySize=auto;html=1;entryX=0.652;entryY=0.955;entryDx=0;entryDy=0;entryPerimeter=0;" edge="1" parent="1" source="kUiguWs9lgzKMgI9lc4B-3" target="kUiguWs9lgzKMgI9lc4B-14">
          <mxGeometry relative="1" as="geometry">
            <mxPoint x="540" y="70" as="targetPoint" />
          </mxGeometry>
        </mxCell>
        <mxCell id="kUiguWs9lgzKMgI9lc4B-50" style="edgeStyle=orthogonalEdgeStyle;rounded=0;orthogonalLoop=1;jettySize=auto;html=1;entryX=0.358;entryY=0.975;entryDx=0;entryDy=0;entryPerimeter=0;" edge="1" parent="1" source="kUiguWs9lgzKMgI9lc4B-3" target="kUiguWs9lgzKMgI9lc4B-22">
          <mxGeometry relative="1" as="geometry" />
        </mxCell>
        <mxCell id="kUiguWs9lgzKMgI9lc4B-3" value="Методист" style="shape=umlActor;verticalLabelPosition=bottom;verticalAlign=top;html=1;outlineConnect=0;" vertex="1" parent="1">
          <mxGeometry x="-10" y="120" width="30" height="60" as="geometry" />
        </mxCell>
        <mxCell id="kUiguWs9lgzKMgI9lc4B-51" style="edgeStyle=orthogonalEdgeStyle;rounded=0;orthogonalLoop=1;jettySize=auto;html=1;entryX=0;entryY=0.5;entryDx=0;entryDy=0;" edge="1" parent="1" source="kUiguWs9lgzKMgI9lc4B-4" target="kUiguWs9lgzKMgI9lc4B-10">
          <mxGeometry relative="1" as="geometry" />
        </mxCell>
        <mxCell id="kUiguWs9lgzKMgI9lc4B-53" style="edgeStyle=orthogonalEdgeStyle;rounded=0;orthogonalLoop=1;jettySize=auto;html=1;entryX=0.417;entryY=0.05;entryDx=0;entryDy=0;entryPerimeter=0;" edge="1" parent="1" source="kUiguWs9lgzKMgI9lc4B-4" target="kUiguWs9lgzKMgI9lc4B-18">
          <mxGeometry relative="1" as="geometry" />
        </mxCell>
        <mxCell id="kUiguWs9lgzKMgI9lc4B-54" style="edgeStyle=orthogonalEdgeStyle;rounded=0;orthogonalLoop=1;jettySize=auto;html=1;entryX=0.392;entryY=1;entryDx=0;entryDy=0;entryPerimeter=0;" edge="1" parent="1" source="kUiguWs9lgzKMgI9lc4B-4" target="kUiguWs9lgzKMgI9lc4B-25">
          <mxGeometry relative="1" as="geometry" />
        </mxCell>
        <mxCell id="kUiguWs9lgzKMgI9lc4B-56" style="edgeStyle=orthogonalEdgeStyle;rounded=0;orthogonalLoop=1;jettySize=auto;html=1;entryX=0.426;entryY=0.027;entryDx=0;entryDy=0;entryPerimeter=0;" edge="1" parent="1" source="kUiguWs9lgzKMgI9lc4B-4" target="kUiguWs9lgzKMgI9lc4B-20">
          <mxGeometry relative="1" as="geometry" />
        </mxCell>
        <mxCell id="kUiguWs9lgzKMgI9lc4B-58" style="edgeStyle=orthogonalEdgeStyle;rounded=0;orthogonalLoop=1;jettySize=auto;html=1;entryX=0.652;entryY=0.009;entryDx=0;entryDy=0;entryPerimeter=0;" edge="1" parent="1" source="kUiguWs9lgzKMgI9lc4B-4" target="kUiguWs9lgzKMgI9lc4B-21">
          <mxGeometry relative="1" as="geometry" />
        </mxCell>
        <mxCell id="kUiguWs9lgzKMgI9lc4B-4" value="Администратор" style="shape=umlActor;verticalLabelPosition=bottom;verticalAlign=top;html=1;outlineConnect=0;" vertex="1" parent="1">
          <mxGeometry x="-20" y="250" width="30" height="60" as="geometry" />
        </mxCell>
        <mxCell id="kUiguWs9lgzKMgI9lc4B-5" value="Внешняя система" style="shape=umlActor;verticalLabelPosition=bottom;verticalAlign=top;html=1;outlineConnect=0;" vertex="1" parent="1">
          <mxGeometry x="60" y="520" width="30" height="60" as="geometry" />
        </mxCell>
        <mxCell id="kUiguWs9lgzKMgI9lc4B-31" style="edgeStyle=orthogonalEdgeStyle;rounded=0;orthogonalLoop=1;jettySize=auto;html=1;entryX=0;entryY=0.5;entryDx=0;entryDy=0;" edge="1" parent="1" source="kUiguWs9lgzKMgI9lc4B-6" target="kUiguWs9lgzKMgI9lc4B-13">
          <mxGeometry relative="1" as="geometry" />
        </mxCell>
        <mxCell id="kUiguWs9lgzKMgI9lc4B-39" style="edgeStyle=orthogonalEdgeStyle;rounded=0;orthogonalLoop=1;jettySize=auto;html=1;entryX=0;entryY=0;entryDx=0;entryDy=0;" edge="1" parent="1" source="kUiguWs9lgzKMgI9lc4B-6" target="kUiguWs9lgzKMgI9lc4B-12">
          <mxGeometry relative="1" as="geometry" />
        </mxCell>
        <mxCell id="kUiguWs9lgzKMgI9lc4B-6" value="Студент" style="shape=umlActor;verticalLabelPosition=bottom;verticalAlign=top;html=1;outlineConnect=0;" vertex="1" parent="1">
          <mxGeometry x="-10" y="-380" width="30" height="60" as="geometry" />
        </mxCell>
        <mxCell id="kUiguWs9lgzKMgI9lc4B-7" value="Подсистема планирования" style="shape=umlActor;verticalLabelPosition=bottom;verticalAlign=top;html=1;outlineConnect=0;" vertex="1" parent="1">
          <mxGeometry x="510" y="100" width="30" height="60" as="geometry" />
        </mxCell>
        <mxCell id="kUiguWs9lgzKMgI9lc4B-10" value="Управление студентами (зачисление/отчисление/ред.)" style="ellipse;whiteSpace=wrap;html=1;" vertex="1" parent="1">
          <mxGeometry x="80" y="320" width="120" height="80" as="geometry" />
        </mxCell>
        <mxCell id="kUiguWs9lgzKMgI9lc4B-73" style="edgeStyle=orthogonalEdgeStyle;rounded=0;orthogonalLoop=1;jettySize=auto;html=1;entryX=0.7;entryY=0.045;entryDx=0;entryDy=0;dashed=1;entryPerimeter=0;" edge="1" parent="1" source="kUiguWs9lgzKMgI9lc4B-11" target="kUiguWs9lgzKMgI9lc4B-26">
          <mxGeometry relative="1" as="geometry" />
        </mxCell>
        <mxCell id="kUiguWs9lgzKMgI9lc4B-74" value="&amp;lt;&amp;lt;include&amp;gt;&amp;gt;" style="edgeLabel;html=1;align=center;verticalAlign=middle;resizable=0;points=[];" vertex="1" connectable="0" parent="kUiguWs9lgzKMgI9lc4B-73">
          <mxGeometry x="-0.2109" relative="1" as="geometry">
            <mxPoint as="offset" />
          </mxGeometry>
        </mxCell>
        <mxCell id="kUiguWs9lgzKMgI9lc4B-75" style="edgeStyle=orthogonalEdgeStyle;rounded=0;orthogonalLoop=1;jettySize=auto;html=1;entryX=0.938;entryY=0.777;entryDx=0;entryDy=0;dashed=1;entryPerimeter=0;" edge="1" parent="1" source="kUiguWs9lgzKMgI9lc4B-11" target="kUiguWs9lgzKMgI9lc4B-28">
          <mxGeometry relative="1" as="geometry">
            <Array as="points">
              <mxPoint x="20" y="-120" />
              <mxPoint x="710" y="-120" />
              <mxPoint x="710" y="530" />
              <mxPoint x="363" y="530" />
            </Array>
          </mxGeometry>
        </mxCell>
        <mxCell id="kUiguWs9lgzKMgI9lc4B-76" value="&amp;lt;&amp;lt;include&amp;gt;&amp;gt;" style="edgeLabel;html=1;align=center;verticalAlign=middle;resizable=0;points=[];" vertex="1" connectable="0" parent="kUiguWs9lgzKMgI9lc4B-75">
          <mxGeometry x="-0.2641" y="-2" relative="1" as="geometry">
            <mxPoint as="offset" />
          </mxGeometry>
        </mxCell>
        <mxCell id="kUiguWs9lgzKMgI9lc4B-11" value="Запись на электив/курс" style="ellipse;whiteSpace=wrap;html=1;" vertex="1" parent="1">
          <mxGeometry x="-40" y="-220" width="120" height="80" as="geometry" />
        </mxCell>
        <mxCell id="kUiguWs9lgzKMgI9lc4B-12" value="Просмотр расписания" style="ellipse;whiteSpace=wrap;html=1;" vertex="1" parent="1">
          <mxGeometry x="170" y="-230" width="120" height="80" as="geometry" />
        </mxCell>
        <mxCell id="kUiguWs9lgzKMgI9lc4B-13" value="Авторизация / вход" style="ellipse;whiteSpace=wrap;html=1;" vertex="1" parent="1">
          <mxGeometry x="-190" y="-300" width="120" height="80" as="geometry" />
        </mxCell>
        <mxCell id="kUiguWs9lgzKMgI9lc4B-14" value="Просмотр персонального&amp;nbsp;&lt;div&gt;&lt;span style=&quot;background-color: transparent; color: light-dark(rgb(0, 0, 0), rgb(255, 255, 255));&quot;&gt;дашборда&lt;/span&gt;&lt;/div&gt;" style="ellipse;whiteSpace=wrap;html=1;" vertex="1" parent="1">
          <mxGeometry x="-350" y="-300" width="120" height="80" as="geometry" />
        </mxCell>
        <mxCell id="kUiguWs9lgzKMgI9lc4B-15" value="Ввод/редактирование оценок" style="ellipse;whiteSpace=wrap;html=1;" vertex="1" parent="1">
          <mxGeometry x="220" y="30" width="120" height="80" as="geometry" />
        </mxCell>
        <mxCell id="kUiguWs9lgzKMgI9lc4B-16" value="Управление группами" style="ellipse;whiteSpace=wrap;html=1;" vertex="1" parent="1">
          <mxGeometry x="-150" y="190" width="120" height="80" as="geometry" />
        </mxCell>
        <mxCell id="kUiguWs9lgzKMgI9lc4B-67" style="edgeStyle=orthogonalEdgeStyle;rounded=0;orthogonalLoop=1;jettySize=auto;html=1;entryX=0.402;entryY=0.045;entryDx=0;entryDy=0;dashed=1;entryPerimeter=0;" edge="1" parent="1" source="kUiguWs9lgzKMgI9lc4B-17" target="kUiguWs9lgzKMgI9lc4B-26">
          <mxGeometry relative="1" as="geometry" />
        </mxCell>
        <mxCell id="kUiguWs9lgzKMgI9lc4B-68" value="&amp;lt;&amp;lt;include&amp;gt;&amp;gt;" style="edgeLabel;html=1;align=center;verticalAlign=middle;resizable=0;points=[];" vertex="1" connectable="0" parent="kUiguWs9lgzKMgI9lc4B-67">
          <mxGeometry x="-0.735" y="-2" relative="1" as="geometry">
            <mxPoint as="offset" />
          </mxGeometry>
        </mxCell>
        <mxCell id="kUiguWs9lgzKMgI9lc4B-17" value="Ручная корректировка расписания" style="ellipse;whiteSpace=wrap;html=1;" vertex="1" parent="1">
          <mxGeometry x="440" y="-70" width="120" height="80" as="geometry" />
        </mxCell>
        <mxCell id="kUiguWs9lgzKMgI9lc4B-18" value="Создание/регистрация приказов" style="ellipse;whiteSpace=wrap;html=1;" vertex="1" parent="1">
          <mxGeometry x="270" y="320" width="120" height="80" as="geometry" />
        </mxCell>
        <mxCell id="kUiguWs9lgzKMgI9lc4B-19" value="Журнал аудита / Просмотр логов" style="ellipse;whiteSpace=wrap;html=1;" vertex="1" parent="1">
          <mxGeometry x="-50" y="420" width="120" height="80" as="geometry" />
        </mxCell>
        <mxCell id="kUiguWs9lgzKMgI9lc4B-20" value="Резервное копирование / Восстановление" style="ellipse;whiteSpace=wrap;html=1;" vertex="1" parent="1">
          <mxGeometry x="-280" y="320" width="120" height="80" as="geometry" />
        </mxCell>
        <mxCell id="kUiguWs9lgzKMgI9lc4B-21" value="Импорт/экспорт данных" style="ellipse;whiteSpace=wrap;html=1;" vertex="1" parent="1">
          <mxGeometry x="150" y="410" width="120" height="80" as="geometry" />
        </mxCell>
        <mxCell id="kUiguWs9lgzKMgI9lc4B-22" value="Бронирование аудитории" style="ellipse;whiteSpace=wrap;html=1;" vertex="1" parent="1">
          <mxGeometry x="70" y="30" width="120" height="80" as="geometry" />
        </mxCell>
        <mxCell id="kUiguWs9lgzKMgI9lc4B-65" style="edgeStyle=orthogonalEdgeStyle;rounded=0;orthogonalLoop=1;jettySize=auto;html=1;entryX=0.307;entryY=1.027;entryDx=0;entryDy=0;entryPerimeter=0;" edge="1" parent="1" source="kUiguWs9lgzKMgI9lc4B-23" target="kUiguWs9lgzKMgI9lc4B-26">
          <mxGeometry relative="1" as="geometry" />
        </mxCell>
        <mxCell id="kUiguWs9lgzKMgI9lc4B-66" value="&amp;lt;&amp;lt;include&amp;gt;&amp;gt;" style="edgeLabel;html=1;align=center;verticalAlign=middle;resizable=0;points=[];" vertex="1" connectable="0" parent="kUiguWs9lgzKMgI9lc4B-65">
          <mxGeometry x="-0.2915" relative="1" as="geometry">
            <mxPoint as="offset" />
          </mxGeometry>
        </mxCell>
        <mxCell id="kUiguWs9lgzKMgI9lc4B-69" style="edgeStyle=orthogonalEdgeStyle;rounded=0;orthogonalLoop=1;jettySize=auto;html=1;entryX=1;entryY=0;entryDx=0;entryDy=0;dashed=1;" edge="1" parent="1" source="kUiguWs9lgzKMgI9lc4B-23" target="kUiguWs9lgzKMgI9lc4B-28">
          <mxGeometry relative="1" as="geometry" />
        </mxCell>
        <mxCell id="kUiguWs9lgzKMgI9lc4B-70" value="&amp;lt;&amp;lt;include&amp;gt;&amp;gt;" style="edgeLabel;html=1;align=center;verticalAlign=middle;resizable=0;points=[];" vertex="1" connectable="0" parent="kUiguWs9lgzKMgI9lc4B-69">
          <mxGeometry x="0.3872" relative="1" as="geometry">
            <mxPoint as="offset" />
          </mxGeometry>
        </mxCell>
        <mxCell id="kUiguWs9lgzKMgI9lc4B-23" value="Автоматическое составление расписания" style="ellipse;whiteSpace=wrap;html=1;" vertex="1" parent="1">
          <mxGeometry x="450" y="440" width="120" height="80" as="geometry" />
        </mxCell>
        <mxCell id="kUiguWs9lgzKMgI9lc4B-24" value="Управление дисциплинами и учебными планами" style="ellipse;whiteSpace=wrap;html=1;" vertex="1" parent="1">
          <mxGeometry x="-70" y="20" width="120" height="80" as="geometry" />
        </mxCell>
        <mxCell id="kUiguWs9lgzKMgI9lc4B-25" value="Формирование отчетов и KPI" style="ellipse;whiteSpace=wrap;html=1;" vertex="1" parent="1">
          <mxGeometry x="220" y="180" width="120" height="80" as="geometry" />
        </mxCell>
        <mxCell id="kUiguWs9lgzKMgI9lc4B-26" value="Поиск конфликтов в расписании" style="ellipse;whiteSpace=wrap;html=1;" vertex="1" parent="1">
          <mxGeometry x="580" y="220" width="120" height="80" as="geometry" />
        </mxCell>
        <mxCell id="kUiguWs9lgzKMgI9lc4B-27" value="Управление ролями и доступом" style="ellipse;whiteSpace=wrap;html=1;" vertex="1" parent="1">
          <mxGeometry x="-160" y="340" width="120" height="80" as="geometry" />
        </mxCell>
        <mxCell id="kUiguWs9lgzKMgI9lc4B-28" value="Уведомление участников" style="ellipse;whiteSpace=wrap;html=1;" vertex="1" parent="1">
          <mxGeometry x="250" y="470" width="120" height="80" as="geometry" />
        </mxCell>
        <mxCell id="kUiguWs9lgzKMgI9lc4B-29" value="Управление сотрудниками&lt;div&gt;(оформление/ред.)&lt;/div&gt;" style="ellipse;whiteSpace=wrap;html=1;" vertex="1" parent="1">
          <mxGeometry x="80" y="180" width="120" height="80" as="geometry" />
        </mxCell>
        <mxCell id="kUiguWs9lgzKMgI9lc4B-30" value="Просмотр успеваемости" style="ellipse;whiteSpace=wrap;html=1;" vertex="1" parent="1">
          <mxGeometry x="250" y="-330" width="120" height="80" as="geometry" />
        </mxCell>
        <mxCell id="kUiguWs9lgzKMgI9lc4B-32" style="edgeStyle=orthogonalEdgeStyle;rounded=0;orthogonalLoop=1;jettySize=auto;html=1;entryX=0.914;entryY=0.705;entryDx=0;entryDy=0;entryPerimeter=0;" edge="1" parent="1" source="kUiguWs9lgzKMgI9lc4B-2" target="kUiguWs9lgzKMgI9lc4B-13">
          <mxGeometry relative="1" as="geometry" />
        </mxCell>
        <mxCell id="kUiguWs9lgzKMgI9lc4B-33" style="edgeStyle=orthogonalEdgeStyle;rounded=0;orthogonalLoop=1;jettySize=auto;html=1;entryX=0.64;entryY=0.955;entryDx=0;entryDy=0;entryPerimeter=0;" edge="1" parent="1" source="kUiguWs9lgzKMgI9lc4B-3" target="kUiguWs9lgzKMgI9lc4B-13">
          <mxGeometry relative="1" as="geometry" />
        </mxCell>
        <mxCell id="kUiguWs9lgzKMgI9lc4B-34" style="edgeStyle=orthogonalEdgeStyle;rounded=0;orthogonalLoop=1;jettySize=auto;html=1;entryX=0.26;entryY=0.955;entryDx=0;entryDy=0;entryPerimeter=0;" edge="1" parent="1" source="kUiguWs9lgzKMgI9lc4B-4" target="kUiguWs9lgzKMgI9lc4B-13">
          <mxGeometry relative="1" as="geometry" />
        </mxCell>
        <mxCell id="kUiguWs9lgzKMgI9lc4B-35" style="edgeStyle=orthogonalEdgeStyle;rounded=0;orthogonalLoop=1;jettySize=auto;html=1;entryX=0.248;entryY=0.152;entryDx=0;entryDy=0;entryPerimeter=0;" edge="1" parent="1" source="kUiguWs9lgzKMgI9lc4B-6" target="kUiguWs9lgzKMgI9lc4B-14">
          <mxGeometry relative="1" as="geometry" />
        </mxCell>
        <mxCell id="kUiguWs9lgzKMgI9lc4B-38" style="edgeStyle=orthogonalEdgeStyle;rounded=0;orthogonalLoop=1;jettySize=auto;html=1;entryX=0.248;entryY=0.991;entryDx=0;entryDy=0;entryPerimeter=0;" edge="1" parent="1" source="kUiguWs9lgzKMgI9lc4B-4" target="kUiguWs9lgzKMgI9lc4B-14">
          <mxGeometry relative="1" as="geometry" />
        </mxCell>
        <mxCell id="kUiguWs9lgzKMgI9lc4B-40" style="edgeStyle=orthogonalEdgeStyle;rounded=0;orthogonalLoop=1;jettySize=auto;html=1;entryX=0.417;entryY=0;entryDx=0;entryDy=0;entryPerimeter=0;" edge="1" parent="1" source="kUiguWs9lgzKMgI9lc4B-6" target="kUiguWs9lgzKMgI9lc4B-11">
          <mxGeometry relative="1" as="geometry" />
        </mxCell>
        <mxCell id="kUiguWs9lgzKMgI9lc4B-41" style="edgeStyle=orthogonalEdgeStyle;rounded=0;orthogonalLoop=1;jettySize=auto;html=1;entryX=0.093;entryY=0.235;entryDx=0;entryDy=0;entryPerimeter=0;" edge="1" parent="1" source="kUiguWs9lgzKMgI9lc4B-6" target="kUiguWs9lgzKMgI9lc4B-30">
          <mxGeometry relative="1" as="geometry">
            <Array as="points">
              <mxPoint x="261" y="-350" />
            </Array>
          </mxGeometry>
        </mxCell>
        <mxCell id="kUiguWs9lgzKMgI9lc4B-42" style="edgeStyle=orthogonalEdgeStyle;rounded=0;orthogonalLoop=1;jettySize=auto;html=1;entryX=0.25;entryY=0.938;entryDx=0;entryDy=0;entryPerimeter=0;" edge="1" parent="1" source="kUiguWs9lgzKMgI9lc4B-2" target="kUiguWs9lgzKMgI9lc4B-12">
          <mxGeometry relative="1" as="geometry" />
        </mxCell>
        <mxCell id="kUiguWs9lgzKMgI9lc4B-46" style="edgeStyle=orthogonalEdgeStyle;rounded=0;orthogonalLoop=1;jettySize=auto;html=1;entryX=0.1;entryY=0.246;entryDx=0;entryDy=0;entryPerimeter=0;" edge="1" parent="1" source="kUiguWs9lgzKMgI9lc4B-3" target="kUiguWs9lgzKMgI9lc4B-23">
          <mxGeometry relative="1" as="geometry" />
        </mxCell>
        <mxCell id="kUiguWs9lgzKMgI9lc4B-47" style="edgeStyle=orthogonalEdgeStyle;rounded=0;orthogonalLoop=1;jettySize=auto;html=1;entryX=0.331;entryY=1.027;entryDx=0;entryDy=0;entryPerimeter=0;" edge="1" parent="1" source="kUiguWs9lgzKMgI9lc4B-3" target="kUiguWs9lgzKMgI9lc4B-17">
          <mxGeometry relative="1" as="geometry" />
        </mxCell>
        <mxCell id="kUiguWs9lgzKMgI9lc4B-48" style="edgeStyle=orthogonalEdgeStyle;rounded=0;orthogonalLoop=1;jettySize=auto;html=1;entryX=0.392;entryY=0;entryDx=0;entryDy=0;entryPerimeter=0;" edge="1" parent="1" source="kUiguWs9lgzKMgI9lc4B-3" target="kUiguWs9lgzKMgI9lc4B-16">
          <mxGeometry relative="1" as="geometry" />
        </mxCell>
        <mxCell id="kUiguWs9lgzKMgI9lc4B-49" style="edgeStyle=orthogonalEdgeStyle;rounded=0;orthogonalLoop=1;jettySize=auto;html=1;entryX=0.629;entryY=0.973;entryDx=0;entryDy=0;entryPerimeter=0;" edge="1" parent="1" source="kUiguWs9lgzKMgI9lc4B-3" target="kUiguWs9lgzKMgI9lc4B-24">
          <mxGeometry relative="1" as="geometry" />
        </mxCell>
        <mxCell id="kUiguWs9lgzKMgI9lc4B-52" style="edgeStyle=orthogonalEdgeStyle;rounded=0;orthogonalLoop=1;jettySize=auto;html=1;entryX=0.342;entryY=0.963;entryDx=0;entryDy=0;entryPerimeter=0;" edge="1" parent="1" source="kUiguWs9lgzKMgI9lc4B-4" target="kUiguWs9lgzKMgI9lc4B-29">
          <mxGeometry relative="1" as="geometry" />
        </mxCell>
        <mxCell id="kUiguWs9lgzKMgI9lc4B-55" style="edgeStyle=orthogonalEdgeStyle;rounded=0;orthogonalLoop=1;jettySize=auto;html=1;entryX=0.5;entryY=0;entryDx=0;entryDy=0;" edge="1" parent="1" source="kUiguWs9lgzKMgI9lc4B-4" target="kUiguWs9lgzKMgI9lc4B-27">
          <mxGeometry relative="1" as="geometry" />
        </mxCell>
        <mxCell id="kUiguWs9lgzKMgI9lc4B-57" style="edgeStyle=orthogonalEdgeStyle;rounded=0;orthogonalLoop=1;jettySize=auto;html=1;entryX=0.367;entryY=-0.009;entryDx=0;entryDy=0;entryPerimeter=0;" edge="1" parent="1" source="kUiguWs9lgzKMgI9lc4B-4" target="kUiguWs9lgzKMgI9lc4B-19">
          <mxGeometry relative="1" as="geometry" />
        </mxCell>
        <mxCell id="kUiguWs9lgzKMgI9lc4B-59" style="edgeStyle=orthogonalEdgeStyle;rounded=0;orthogonalLoop=1;jettySize=auto;html=1;entryX=0.307;entryY=0.92;entryDx=0;entryDy=0;entryPerimeter=0;" edge="1" parent="1" source="kUiguWs9lgzKMgI9lc4B-5" target="kUiguWs9lgzKMgI9lc4B-21">
          <mxGeometry relative="1" as="geometry" />
        </mxCell>
        <mxCell id="kUiguWs9lgzKMgI9lc4B-60" style="edgeStyle=orthogonalEdgeStyle;rounded=0;orthogonalLoop=1;jettySize=auto;html=1;entryX=0;entryY=1;entryDx=0;entryDy=0;" edge="1" parent="1" source="kUiguWs9lgzKMgI9lc4B-5" target="kUiguWs9lgzKMgI9lc4B-28">
          <mxGeometry relative="1" as="geometry">
            <Array as="points">
              <mxPoint x="268" y="550" />
            </Array>
          </mxGeometry>
        </mxCell>
        <mxCell id="kUiguWs9lgzKMgI9lc4B-61" style="edgeStyle=orthogonalEdgeStyle;rounded=0;orthogonalLoop=1;jettySize=auto;html=1;entryX=0.5;entryY=1;entryDx=0;entryDy=0;" edge="1" parent="1" source="kUiguWs9lgzKMgI9lc4B-5" target="kUiguWs9lgzKMgI9lc4B-27">
          <mxGeometry relative="1" as="geometry" />
        </mxCell>
        <mxCell id="kUiguWs9lgzKMgI9lc4B-63" style="edgeStyle=orthogonalEdgeStyle;rounded=0;orthogonalLoop=1;jettySize=auto;html=1;entryX=0.688;entryY=0.098;entryDx=0;entryDy=0;entryPerimeter=0;" edge="1" parent="1" source="kUiguWs9lgzKMgI9lc4B-7" target="kUiguWs9lgzKMgI9lc4B-23">
          <mxGeometry relative="1" as="geometry" />
        </mxCell>
        <mxCell id="kUiguWs9lgzKMgI9lc4B-64" style="edgeStyle=orthogonalEdgeStyle;rounded=0;orthogonalLoop=1;jettySize=auto;html=1;entryX=0;entryY=0;entryDx=0;entryDy=0;" edge="1" parent="1" source="kUiguWs9lgzKMgI9lc4B-7" target="kUiguWs9lgzKMgI9lc4B-26">
          <mxGeometry relative="1" as="geometry" />
        </mxCell>
        <mxCell id="kUiguWs9lgzKMgI9lc4B-71" style="edgeStyle=orthogonalEdgeStyle;rounded=0;orthogonalLoop=1;jettySize=auto;html=1;entryX=0.593;entryY=0.027;entryDx=0;entryDy=0;entryPerimeter=0;dashed=1;" edge="1" parent="1" source="kUiguWs9lgzKMgI9lc4B-18" target="kUiguWs9lgzKMgI9lc4B-28">
          <mxGeometry relative="1" as="geometry" />
        </mxCell>
        <mxCell id="kUiguWs9lgzKMgI9lc4B-72" value="&amp;lt;&amp;lt;include&amp;gt;&amp;gt;" style="edgeLabel;html=1;align=center;verticalAlign=middle;resizable=0;points=[];" vertex="1" connectable="0" parent="kUiguWs9lgzKMgI9lc4B-71">
          <mxGeometry x="0.0878" relative="1" as="geometry">
            <mxPoint as="offset" />
          </mxGeometry>
        </mxCell>
        <mxCell id="kUiguWs9lgzKMgI9lc4B-77" style="edgeStyle=orthogonalEdgeStyle;rounded=0;orthogonalLoop=1;jettySize=auto;html=1;entryX=0.724;entryY=0.955;entryDx=0;entryDy=0;entryPerimeter=0;dashed=1;exitX=0.962;exitY=0.795;exitDx=0;exitDy=0;exitPerimeter=0;" edge="1" parent="1" source="kUiguWs9lgzKMgI9lc4B-15" target="kUiguWs9lgzKMgI9lc4B-28">
          <mxGeometry relative="1" as="geometry">
            <Array as="points">
              <mxPoint x="335" y="90" />
              <mxPoint x="420" y="90" />
              <mxPoint x="420" y="546" />
            </Array>
          </mxGeometry>
        </mxCell>
        <mxCell id="kUiguWs9lgzKMgI9lc4B-78" value="&amp;lt;&amp;lt;include&amp;gt;&amp;gt;" style="edgeLabel;html=1;align=center;verticalAlign=middle;resizable=0;points=[];" vertex="1" connectable="0" parent="kUiguWs9lgzKMgI9lc4B-77">
          <mxGeometry x="0.2198" y="4" relative="1" as="geometry">
            <mxPoint as="offset" />
          </mxGeometry>
        </mxCell>
        <mxCell id="kUiguWs9lgzKMgI9lc4B-79" style="edgeStyle=orthogonalEdgeStyle;rounded=0;orthogonalLoop=1;jettySize=auto;html=1;entryX=1;entryY=0;entryDx=0;entryDy=0;dashed=1;exitX=0.986;exitY=0.366;exitDx=0;exitDy=0;exitPerimeter=0;" edge="1" parent="1" source="kUiguWs9lgzKMgI9lc4B-15" target="kUiguWs9lgzKMgI9lc4B-30">
          <mxGeometry relative="1" as="geometry">
            <Array as="points">
              <mxPoint x="428" y="-340" />
              <mxPoint x="352" y="-340" />
            </Array>
          </mxGeometry>
        </mxCell>
        <mxCell id="kUiguWs9lgzKMgI9lc4B-80" value="&amp;lt;&amp;lt;include&amp;gt;&amp;gt;" style="edgeLabel;html=1;align=center;verticalAlign=middle;resizable=0;points=[];" vertex="1" connectable="0" parent="kUiguWs9lgzKMgI9lc4B-79">
          <mxGeometry x="0.318" y="2" relative="1" as="geometry">
            <mxPoint as="offset" />
          </mxGeometry>
        </mxCell>
      </root>
    </mxGraphModel>
  </diagram>
</mxfile>
